<svg xmlns="http://www.w3.org/2000/svg" viewBox="0 0 1200 480" role="img" aria-labelledby="jazz-wordmark-title jazz-wordmark-desc">
  <title id="jazz-wordmark-title">Jazz</title>
  <desc id="jazz-wordmark-desc">A wide brass saxophone shaped like the letter J beside the Jazz wordmark.</desc>
  <defs>
    <linearGradient id="jazz-wordmark-brass" x1="64" y1="72" x2="396" y2="416" gradientUnits="userSpaceOnUse">
      <stop offset="0" stop-color="#FFE66A"/>
      <stop offset=".48" stop-color="#FFC43D"/>
      <stop offset="1" stop-color="#F47A32"/>
    </linearGradient>
  </defs>
  <g data-role="logo-mark" transform="translate(60 84) scale(.65)">
    <rect x="20" y="94" width="108" height="36" rx="18" fill="#24182C"/>
    <rect x="31" y="103" width="63" height="18" rx="9" fill="#FFD54C"/>
    <path d="M106 112C153 88 187 124 222 111C258 97 274 64 323 64C368 64 393 90 393 138V302C393 375 351 417 288 417C228 417 190 382 190 327V295" fill="none" stroke="#24182C" stroke-width="120" stroke-linecap="round" stroke-linejoin="round"/>
    <path d="M106 112C153 88 187 124 222 111C258 97 274 64 323 64C368 64 393 90 393 138V302C393 375 351 417 288 417C228 417 190 382 190 327V295" fill="none" stroke="url(#jazz-wordmark-brass)" stroke-width="72" stroke-linecap="round" stroke-linejoin="round"/>
    <circle cx="393" cy="178" r="14" fill="#24182C"/>
    <circle cx="393" cy="232" r="14" fill="#24182C"/>
    <circle cx="393" cy="286" r="14" fill="#24182C"/>
  </g>
  <g data-role="wordmark" transform="translate(-39 0)" fill="#24182C">
    <path d="M535 92H615V300C615 362 577 396 519 396C499 396 481 392 466 386L480 326C491 330 502 332 513 332C528 332 535 321 535 300Z"/>
    <path d="M635 390L710 92H780L857 390H783L771 337H702L690 390ZM715 278H758L737 183Z" fill-rule="evenodd"/>
    <path d="M865 92H1008V154L939 327H1011V390H857V329L929 157H865Z"/>
    <path d="M1018 92H1161V154L1092 327H1164V390H1010V329L1082 157H1018Z"/>
  </g>
</svg>
