<svg xmlns="http://www.w3.org/2000/svg" viewBox="0 0 1200 630" width="1200" height="630" role="img">
  <title>Jazz language social preview</title>
  <desc>Jazz branding in warm brass and deep ink with the language promise and a large saxophone J.</desc>
  <rect width="1200" height="630" fill="#171824"/>
  <g fill="#2A2C3A">
    <rect x="0" y="132" width="1200" height="2"/>
    <rect x="0" y="204" width="1200" height="2"/>
    <rect x="0" y="276" width="1200" height="2"/>
    <rect x="0" y="348" width="1200" height="2"/>
    <rect x="0" y="420" width="1200" height="2"/>
  </g>
  <g transform="translate(92 160) scale(1.35)">
    <path d="M30 38C46 31 55 24 72 24h24c16 0 26 13 26 30v76c0 39-23 63-55 63-28 0-49-17-49-42 0-22 16-36 37-37 18-1 33 8 42 23" fill="none" stroke="#F3EDDF" stroke-width="38" stroke-linecap="round" stroke-linejoin="round"/>
    <path d="M30 38C46 31 55 24 72 24h24c16 0 26 13 26 30v76c0 39-23 63-55 63-28 0-49-17-49-42 0-22 16-36 37-37 18-1 33 8 42 23" fill="none" stroke="#D49A35" stroke-width="24" stroke-linecap="round" stroke-linejoin="round"/>
    <path d="M5 32l28-5v22L5 44c-7-1-7-11 0-12Z" fill="#F3EDDF"/>
    <path d="m88 128 16 18 41-30c8-6 9-15 3-22l-10-10c-6-6-16-5-21 3l-29 41Z" fill="#D49A35" stroke="#F3EDDF" stroke-width="9" stroke-linejoin="round"/>
    <path d="M135 91c9 4 14 10 16 18" fill="none" stroke="#171824" stroke-width="6" stroke-linecap="round"/>
    <circle cx="122" cy="76" r="5" fill="#171824"/>
    <circle cx="122" cy="101" r="5" fill="#171824"/>
    <circle cx="121" cy="126" r="5" fill="#171824"/>
  </g>
  <g transform="translate(330 205) scale(1.65)">
    <path fill="#F3EDDF" fill-rule="evenodd" d="M54 0C17 0-9 25-9 61s25 60 59 60c17 0 31-6 41-17v13h31V5H91v13C81 6 69 0 54 0Zm2 30c21 0 35 13 35 31S77 92 56 92c-20 0-34-13-34-31s14-31 34-31Z"/>
    <path fill="#F3EDDF" d="M135 5h105v24l-66 62h69v26H131V93l66-62h-62V5Zm116 0h105v24l-66 62h69v26H247V93l66-62h-62V5Z"/>
  </g>
  <text x="96" y="487" fill="#F3EDDF" font-family="Manrope, Arial, sans-serif" font-size="30" font-weight="560" letter-spacing=".2">A statically typed functional language with practical syntax</text>
  <rect x="96" y="535" width="118" height="6" fill="#D49A35"/>
</svg>
